<svg width="149" height="36" fill="none" xmlns="http://www.w3.org/2000/svg">
    <circle cx="82.6" cy="10.6" r="1.9" fill="#FF4500" />
    <circle cx="104.2" cy="10.6" r="1.9" fill="#FF4500" />
    <path fill-rule="evenodd" clip-rule="evenodd"
        d="M66 7l1 1v15a1 1 0 01-2 0l-3 1c-3 0-5-3-5-6s2-6 5-6l3 1V8l1-1zM55 19l1-2c0-3-2-5-5-5s-5 3-5 6 2 6 5 6l4-2v-1h-1l-3 1-3-3h7zm-4-5c1 0 3 1 3 3h-6l3-3zm-6-2l1 1-1 1c-2 0-4 2-4 4v5l-1 1-1-1v-9l1-1 1 1 4-2zm39 3l-1-2-2 2v8l2 1 1-1v-8zm-22 7c-1 0-3-2-3-4s2-4 3-4c2 0 3 2 3 4s-1 4-3 4zM78 7l1 1v15a1 1 0 01-2 0l-3 1c-3 0-5-3-5-6s2-6 5-6l3 1V8l1-1zm-4 15c-2 0-3-2-3-4s1-4 3-4c1 0 3 2 3 4s-2 4-3 4zm15-8v9l-1 1-1-1v-9h-1l-1-1h2v-2l1-1 1 1v2h1l1 1h-2zM100 23v-9h1l1-1-1-1h-1v-1l-1-1-1 1v1h-1l-1 1 1 1h1v9l1 1 1-1zm34-6l-1 2h-7c0 1 1 3 3 3l2-1h2v1l-4 2c-3 0-5-3-5-6s2-6 5-6c2 0 4 2 5 5zm-2 0l-3-3c-1 0-3 1-3 3h6zm11-4l-1-1-4 2-1-2-1 2v9l1 1 1-1v-5c0-2 1-4 3-4h1l1-1zm-39 0l1 1v8a1 1 0 01-2 0v-8l1-1zm12 0l2-1h2l1 1 1 2v8l-1 1-1-1v-7l-1-1-1-1-2 1v8l-1 1-1-1v-7l-1-1-1-1-2 1v7l-1 1-1 1v-1l-1-1v-9h1v-1l1 1h1a4 4 0 012-1l2 1 1 1 1-1z"
        fill="#1E2537" />
    <g fill-rule="evenodd" clip-rule="evenodd">
        <path
            d="M31 15c0 4-1 7-3 10l6 6v4l-1 1-2-1-7-7A15 15 0 010 15a15 15 0 0131 0zM15 30a14 14 0 100-29 14 14 0 000 29z"
            fill="#1E2537" />
        <path
            d="M23 10l2-2a2 2 0 00-4 0l2 2zm-2-2l-4-1 4 1zm-4-1l-2 5 2-5zm2 14l-4 2-3-2h7zM6 17a2 2 0 112-3l-2 3zm19-4l-2 1 2 4a2 2 0 000-5z"
            fill="#fff" />
        <path
            d="M5 18c0 4 5 7 10 7 6 0 11-3 11-7l1-3a3 3 0 00-4-1c-2-2-5-2-7-2l1-5 4 1a2 2 0 100-1l-4-1-2 6c-3 0-5 0-7 2a3 3 0 00-4 1l1 3zm1 0a6 6 0 012-4l7-2a12 12 0 017 3 6 6 0 013 3c0 4-4 7-10 7-5 0-9-3-9-7zm17-4l2 3 1-2a2 2 0 00-3-1zM5 15a2 2 0 012-1l-2 3v-2zm18-8a1 1 0 100 2 1 1 0 000-2zM12 22l3 1 4-1-1-1-3 1-3-1v1z"
            fill="#1E2537" />
        <path d="M10 17l2-1 1 1-1 2-2-2zm7 0l2-1 1 1-1 2-2-2z" fill="#FF4500" />
    </g>
</svg>